<svg width="48" height="48" viewBox="0 0 48 48" fill="none" xmlns="http://www.w3.org/2000/svg">
<circle cx="24" cy="24" r="23" fill="white"/>
<path d="M37.9515 10.6369C37.8842 10.4801 37.7578 10.356 37.5997 10.2914C37.4415 10.2268 37.2643 10.227 37.1063 10.2918C35.285 11.027 34.7487 12.0742 34.2324 13.1907C34.2759 13.0559 34.3173 12.9226 34.3566 12.7929C34.698 11.6816 34.923 10.9474 36.2802 10.1874C36.3537 10.1471 36.4183 10.0925 36.4704 10.0269C36.5224 9.96122 36.5608 9.88586 36.5833 9.8052C36.6058 9.72455 36.612 9.64021 36.6014 9.55715C36.5909 9.47409 36.5638 9.39397 36.5218 9.3215C36.4352 9.17415 36.2941 9.0667 36.1289 9.02233C35.9638 8.97797 35.7877 9.00024 35.6388 9.08436C33.8321 10.0949 33.485 11.228 33.1172 12.4271C32.8767 13.2104 32.6176 14.0525 31.8991 15.0404C31.3022 14.7789 30.8517 14.6028 30.3179 14.734L28.9016 13.3442C28.3948 12.8467 27.7118 12.5693 27.0013 12.5723C26.2833 12.5723 25.6088 12.8461 25.1019 13.3442L8 30.1252L18.0574 30.1314L18.0642 40L35.1661 23.2195C35.4146 22.9766 35.6121 22.6866 35.7469 22.3664C35.8816 22.0462 35.951 21.7024 35.951 21.3551C35.9509 21.0078 35.8814 20.6639 35.7466 20.3438C35.6117 20.0237 35.4142 19.7337 35.1656 19.4908L33.7431 18.0953C33.8642 17.6216 33.7586 17.1902 33.5564 16.6663C33.5564 16.6663 33.5016 16.7221 33.3971 16.8197C34.4781 15.7167 34.9519 14.7144 35.3538 13.8417C35.854 12.7557 36.184 12.0381 37.5992 11.4661C37.6774 11.4355 37.7487 11.3896 37.8089 11.3311C37.8691 11.2726 37.9171 11.2027 37.9499 11.1255C37.9827 11.0483 37.9997 10.9653 38 10.8814C38.0003 10.7975 37.9838 10.7144 37.9515 10.6369ZM28.1599 17.9636C28.2137 18.0122 28.2742 18.0561 28.3461 18.085C28.4667 18.1329 28.5988 18.1438 28.7256 18.1162C28.8524 18.0887 28.968 18.0241 29.0578 17.9305C29.4089 18.0032 29.7317 18.175 29.9879 18.4255C30.246 18.6787 30.4172 18.9943 30.4922 19.3369C30.3973 19.4232 30.3313 19.5365 30.3031 19.6616C30.2749 19.7866 30.2858 19.9173 30.3344 20.0359C30.3639 20.1072 30.4089 20.1661 30.458 20.2198C30.3734 20.5234 30.2114 20.7999 29.9879 21.0222C29.2803 21.7156 28.0482 21.7156 27.3416 21.0222C27.1678 20.8535 27.0297 20.6517 26.9355 20.4286C26.8413 20.2056 26.793 19.9659 26.7933 19.7238C26.7928 19.4818 26.8411 19.2422 26.9353 19.0192C27.0295 18.7963 27.1677 18.5945 27.3416 18.426C27.5702 18.2043 27.8519 18.0451 28.1599 17.9636Z" fill="black"/>
</svg>
